<svg width="1015" height="1647" viewBox="0 0 1015 1647" fill="none" xmlns="http://www.w3.org/2000/svg">
<mask id="path-1-inside-1_350_415" fill="white">
<path fill-rule="evenodd" clip-rule="evenodd" d="M478 101C494.292 101 507.5 87.7924 507.5 71.5V41H508.5V71.5C508.5 87.7924 521.708 101 538 101H751C767.845 101 781.5 114.655 781.5 131.5V154H783.887L781 159L778.113 154H780.5V131.5C780.5 115.208 767.292 102 751 102H538C523.044 102 510.601 91.2344 508 77.0295C505.399 91.2344 492.957 102 478 102H265C248.708 102 235.5 115.208 235.5 131.5V154H237.887L235 159L232.113 154H234.5V131.5C234.5 114.655 248.155 101 265 101H478ZM622 782.5C622.276 782.5 622.5 782.724 622.5 783V801.084V998C622.5 1014.84 608.845 1028.5 592 1028.5H265C248.722 1028.5 235.523 1041.68 235.5 1057.96V1111H237.887L235.5 1115.13V1116C235.5 1116.28 235.276 1116.5 235 1116.5C234.724 1116.5 234.5 1116.28 234.5 1116V1115.13L232.113 1111H234.5V1058V1057.96V999C234.5 998.724 234.724 998.5 235 998.5C235.276 998.5 235.5 998.724 235.5 999V1050.22C238.938 1037.15 250.842 1027.5 265 1027.5H592C608.292 1027.5 621.5 1014.29 621.5 998V808.859C618.062 821.938 606.158 831.584 592 831.584H265C248.722 831.584 235.523 844.768 235.5 861.041V895H237.887L235 900L232.113 895H234.5V888.006V888V861.084V861.04V659C234.5 658.724 234.724 658.5 235 658.5C235.276 658.5 235.5 658.724 235.5 659V853.309C238.938 840.23 250.842 830.584 265 830.584H592C608.292 830.584 621.5 817.377 621.5 801.084V783C621.5 782.724 621.724 782.5 622 782.5ZM781.5 421.708C781.5 432.477 772.77 441.208 762 441.208H704C692.678 441.208 683.5 450.386 683.5 461.708V483H681.113L684 488L686.887 483H684.5V461.708C684.5 450.938 693.231 442.208 704 442.208H762C771.769 442.208 779.942 435.375 782 426.228C784.059 435.375 792.231 442.208 802 442.208H860C870.77 442.208 879.5 450.938 879.5 461.708V483H877.113L880 488L882.887 483H880.5V461.708C880.5 450.386 871.322 441.208 860 441.208H802C791.231 441.208 782.5 432.477 782.5 421.708V393H781.5V421.708ZM766 841C776.77 841 785.5 832.27 785.5 821.5V786H786.5V821.5C786.5 832.27 795.231 841 806 841H875C886.322 841 895.5 850.178 895.5 861.5V1111H897.887L895 1116L892.113 1111H894.5V861.5C894.5 850.73 885.77 842 875 842H806C796.231 842 788.059 835.167 786 826.02C783.942 835.167 775.769 842 766 842H697C686.231 842 677.5 850.73 677.5 861.5V1111H679.887L677 1116L674.113 1111H676.5V861.5C676.5 850.178 685.678 841 697 841H766ZM766 698.157C776.77 698.157 785.5 689.426 785.5 678.657V652H786.5V678.657C786.5 689.426 795.23 698.157 806 698.157H930C941.322 698.157 950.5 707.335 950.5 718.657V738H952.887L950 743L947.113 738H949.5V718.657C949.5 707.887 940.77 699.157 930 699.157H806C796.892 699.157 789.171 693.217 786.5 684.999V738H788.887L786 743L783.113 738H785.5V684.999C782.829 693.217 775.108 699.157 766 699.157H642C631.231 699.157 622.5 707.887 622.5 718.657V738H624.887L622 743L619.113 738H621.5V718.657C621.5 707.335 630.678 698.157 642 698.157H766ZM235.5 1188.58C235.5 1204.87 222.292 1218.08 206 1218.08H94C77.1554 1218.08 63.5 1231.73 63.5 1248.58V1274H61.1133L64 1279L66.8868 1274H64.5V1248.58C64.5 1232.28 77.7076 1219.08 94 1219.08H206C220.957 1219.08 233.399 1208.31 236 1194.11C238.601 1208.31 251.044 1219.08 266 1219.08H380C396.292 1219.08 409.5 1232.28 409.5 1248.58V1274H407.113L410 1279L412.887 1274H410.5V1248.58C410.5 1231.73 396.845 1218.08 380 1218.08H266C249.708 1218.08 236.5 1204.87 236.5 1188.58V1155H235.5V1188.58ZM381 1381C397.292 1381 410.5 1367.79 410.5 1351.5V1351V1321H411.5V1351V1351.5C411.5 1367.79 424.708 1381 441 1381H620C636.845 1381 650.5 1394.66 650.5 1411.5V1434H652.887L650 1439L647.113 1434H649.5V1411.5C649.5 1395.21 636.292 1382 620 1382H441C426.842 1382 414.938 1372.35 411.5 1359.28V1438H413.887L411 1443L408.113 1438H410.5V1359.28C407.062 1372.35 395.158 1382 381 1382H206C189.708 1382 176.5 1395.21 176.5 1411.5V1434H178.887L176 1439L173.113 1434H175.5V1411.5C175.5 1394.66 189.155 1381 206 1381H381ZM235.5 205C235.5 204.724 235.276 204.5 235 204.5C234.724 204.5 234.5 204.724 234.5 205V347H232.113L235 352L237.887 347H235.5V205ZM235 446.5C235.276 446.5 235.5 446.724 235.5 447V564H237.887L235 569L232.113 564H234.5V447C234.5 446.724 234.724 446.5 235 446.5ZM781 204.5C781.276 204.5 781.5 204.724 781.5 205V347H783.887L781 352L778.113 347H780.5V205C780.5 204.724 780.724 204.5 781 204.5ZM680.5 1180C680.5 1179.72 680.276 1179.5 680 1179.5C679.724 1179.5 679.5 1179.72 679.5 1180V1434H677.113L680 1439L682.887 1434H680.5V1180Z"/>
</mask>
<path fill-rule="evenodd" clip-rule="evenodd" d="M478 101C494.292 101 507.5 87.7924 507.5 71.5V41H508.5V71.5C508.5 87.7924 521.708 101 538 101H751C767.845 101 781.5 114.655 781.5 131.5V154H783.887L781 159L778.113 154H780.5V131.5C780.5 115.208 767.292 102 751 102H538C523.044 102 510.601 91.2344 508 77.0295C505.399 91.2344 492.957 102 478 102H265C248.708 102 235.5 115.208 235.5 131.5V154H237.887L235 159L232.113 154H234.5V131.5C234.5 114.655 248.155 101 265 101H478ZM622 782.5C622.276 782.5 622.5 782.724 622.5 783V801.084V998C622.5 1014.84 608.845 1028.5 592 1028.5H265C248.722 1028.5 235.523 1041.68 235.5 1057.96V1111H237.887L235.5 1115.13V1116C235.5 1116.28 235.276 1116.5 235 1116.5C234.724 1116.5 234.5 1116.28 234.5 1116V1115.13L232.113 1111H234.5V1058V1057.96V999C234.5 998.724 234.724 998.5 235 998.5C235.276 998.5 235.5 998.724 235.5 999V1050.22C238.938 1037.15 250.842 1027.5 265 1027.5H592C608.292 1027.5 621.5 1014.29 621.5 998V808.859C618.062 821.938 606.158 831.584 592 831.584H265C248.722 831.584 235.523 844.768 235.5 861.041V895H237.887L235 900L232.113 895H234.5V888.006V888V861.084V861.04V659C234.5 658.724 234.724 658.5 235 658.5C235.276 658.5 235.5 658.724 235.5 659V853.309C238.938 840.23 250.842 830.584 265 830.584H592C608.292 830.584 621.5 817.377 621.5 801.084V783C621.5 782.724 621.724 782.5 622 782.5ZM781.5 421.708C781.5 432.477 772.77 441.208 762 441.208H704C692.678 441.208 683.5 450.386 683.5 461.708V483H681.113L684 488L686.887 483H684.5V461.708C684.5 450.938 693.231 442.208 704 442.208H762C771.769 442.208 779.942 435.375 782 426.228C784.059 435.375 792.231 442.208 802 442.208H860C870.77 442.208 879.5 450.938 879.5 461.708V483H877.113L880 488L882.887 483H880.5V461.708C880.5 450.386 871.322 441.208 860 441.208H802C791.231 441.208 782.5 432.477 782.5 421.708V393H781.5V421.708ZM766 841C776.77 841 785.5 832.27 785.5 821.5V786H786.5V821.5C786.5 832.27 795.231 841 806 841H875C886.322 841 895.5 850.178 895.5 861.5V1111H897.887L895 1116L892.113 1111H894.5V861.5C894.5 850.73 885.77 842 875 842H806C796.231 842 788.059 835.167 786 826.02C783.942 835.167 775.769 842 766 842H697C686.231 842 677.5 850.73 677.5 861.5V1111H679.887L677 1116L674.113 1111H676.5V861.5C676.5 850.178 685.678 841 697 841H766ZM766 698.157C776.77 698.157 785.5 689.426 785.5 678.657V652H786.5V678.657C786.5 689.426 795.23 698.157 806 698.157H930C941.322 698.157 950.5 707.335 950.5 718.657V738H952.887L950 743L947.113 738H949.5V718.657C949.5 707.887 940.77 699.157 930 699.157H806C796.892 699.157 789.171 693.217 786.5 684.999V738H788.887L786 743L783.113 738H785.5V684.999C782.829 693.217 775.108 699.157 766 699.157H642C631.231 699.157 622.5 707.887 622.5 718.657V738H624.887L622 743L619.113 738H621.5V718.657C621.5 707.335 630.678 698.157 642 698.157H766ZM235.5 1188.58C235.5 1204.87 222.292 1218.08 206 1218.08H94C77.1554 1218.08 63.5 1231.73 63.5 1248.58V1274H61.1133L64 1279L66.8868 1274H64.5V1248.58C64.5 1232.28 77.7076 1219.08 94 1219.08H206C220.957 1219.08 233.399 1208.31 236 1194.11C238.601 1208.31 251.044 1219.08 266 1219.08H380C396.292 1219.08 409.5 1232.28 409.5 1248.58V1274H407.113L410 1279L412.887 1274H410.5V1248.58C410.5 1231.73 396.845 1218.08 380 1218.08H266C249.708 1218.08 236.5 1204.87 236.5 1188.58V1155H235.5V1188.58ZM381 1381C397.292 1381 410.5 1367.79 410.5 1351.5V1351V1321H411.5V1351V1351.5C411.5 1367.79 424.708 1381 441 1381H620C636.845 1381 650.5 1394.66 650.5 1411.5V1434H652.887L650 1439L647.113 1434H649.5V1411.5C649.5 1395.21 636.292 1382 620 1382H441C426.842 1382 414.938 1372.35 411.5 1359.28V1438H413.887L411 1443L408.113 1438H410.5V1359.28C407.062 1372.35 395.158 1382 381 1382H206C189.708 1382 176.5 1395.21 176.5 1411.5V1434H178.887L176 1439L173.113 1434H175.5V1411.5C175.5 1394.66 189.155 1381 206 1381H381ZM235.5 205C235.5 204.724 235.276 204.5 235 204.5C234.724 204.5 234.5 204.724 234.5 205V347H232.113L235 352L237.887 347H235.5V205ZM235 446.5C235.276 446.5 235.5 446.724 235.5 447V564H237.887L235 569L232.113 564H234.5V447C234.5 446.724 234.724 446.5 235 446.5ZM781 204.5C781.276 204.5 781.5 204.724 781.5 205V347H783.887L781 352L778.113 347H780.5V205C780.5 204.724 780.724 204.5 781 204.5ZM680.5 1180C680.5 1179.72 680.276 1179.5 680 1179.5C679.724 1179.5 679.5 1179.72 679.5 1180V1434H677.113L680 1439L682.887 1434H680.5V1180Z" stroke="#D8D8D8" stroke-width="2" mask="url(#path-1-inside-1_350_415)"/>
</svg>
